<svg viewBox="0 0 97 83">
    <path d="M95.9184,51.7857C96.9388,51.3776 97.3469,50.1531 96.9388,49.1327C96.5306,48.1122 95.3061,47.7041 94.2857,48.1122C94.2857,48.1122 93.8776,48.3163 93.8776,48.3163C92.449,47.0918 91.6327,45.2551 91.6327,43.4184C91.6327,42.398 91.8367,41.3776 92.2449,40.5612C92.2449,40.5612 95.9184,38.9286 95.9184,38.9286C96.9388,38.5204 97.3469,37.2959 96.9388,36.2755C96.5306,35.2551 95.3061,34.8469 94.2857,35.2551C94.2857,35.2551 93.8776,35.4592 93.8776,35.4592C92.449,34.2347 91.6327,32.398 91.6327,30.5612C91.6327,29.5408 91.8367,28.5204 92.2449,27.7041C92.2449,27.7041 95.9184,26.0714 95.9184,26.0714C96.5306,25.6633 97.1429,25.051 97.1429,24.2347C97.1429,23.4184 96.7347,22.8061 95.9184,22.398C95.9184,22.398 45.7143,0.153061 45.7143,0.153061C45.102,-0.0510204 44.6939,-0.0510204 44.0816,0.153061C44.0816,0.153061 5.5102,17.7041 5.5102,17.7041C5.5102,17.7041 5.5102,17.7041 5.30612,17.7041C2.04082,19.1327 0,22.398 0,26.0714C0,28.5204 1.02041,30.7653 2.65306,32.602C1.02041,34.2347 0,36.4796 0,39.1327C0,41.5816 1.02041,44.0306 2.65306,45.6633C1.02041,47.2959 0,49.5408 0,52.1939C0,55.8673 2.04082,58.9286 5.30612,60.5612L55.3061,82.8061L55.3061,82.8061C55.3061,82.8061 55.3061,82.8061 55.3061,82.8061C55.3061,82.8061 55.3061,82.8061 55.3061,82.8061C55.5102,82.8061 55.7143,83.0102 56.1224,83.0102C56.1224,83.0102 56.3265,83.0102 56.3265,83.0102C56.5306,83.0102 56.7347,83.0102 56.7347,82.8061C56.7347,82.8061 56.9388,82.8061 56.9388,82.8061C56.9388,82.8061 95.7143,65.2551 95.7143,65.2551C96.7347,64.8469 97.1429,63.6224 96.7347,62.602C96.3265,61.5816 95.102,61.1735 94.0816,61.5816C94.0816,61.5816 93.6735,61.7857 93.6735,61.7857C92.2449,60.5612 91.4286,58.7245 91.4286,56.8878C91.4286,55.8673 91.6327,54.8469 92.0408,54.0306C92.0408,54.0306 95.9184,51.7857 95.9184,51.7857ZM3.87755,38.9286C3.87755,37.0918 4.69388,35.6633 6.12245,34.6429C6.12245,34.6429 52.2449,55.2551 52.2449,55.2551C50.8163,56.8878 50,58.9286 50,61.1735C50,61.7857 50,62.1939 50.2041,62.8061C50.2041,62.8061 6.93878,43.6224 6.93878,43.6224C6.93878,43.6224 6.93878,43.6224 6.93878,43.6224C5.10204,42.602 3.87755,40.9694 3.87755,38.9286ZM92.449,49.1327C92.449,49.1327 56.3265,65.4592 56.3265,65.4592C54.898,64.4388 53.8776,63.0102 53.8776,61.1735C53.8776,59.1327 54.898,57.5 56.7347,56.6837C56.7347,56.6837 56.7347,56.6837 56.9388,56.6837C56.9388,56.6837 57.1429,56.6837 57.1429,56.6837C57.1429,56.6837 90.6122,41.5816 90.6122,41.5816C90.4082,42.1939 90.4082,43.0102 90.4082,43.6224C90.2041,45.6633 91.0204,47.7041 92.449,49.1327ZM92.449,36.2755C92.449,36.2755 56.3265,52.602 56.3265,52.602C54.898,51.5816 53.8776,50.1531 53.8776,48.3163C53.8776,46.2755 54.898,44.6429 56.7347,43.6224C56.7347,43.6224 56.7347,43.6224 56.9388,43.6224C56.9388,43.6224 90.4082,28.3163 90.4082,28.3163C90.2041,28.9286 90.2041,29.7449 90.2041,30.5612C90.2041,32.8061 91.0204,34.8469 92.449,36.2755ZM44.898,4.03061L90.2041,24.2347L56.3265,39.7449L11.0204,19.5408L44.898,4.03061ZM6.12245,21.7857C6.12245,21.7857 52.2449,42.398 52.2449,42.398C50.8163,44.0306 50,46.0714 50,48.5204C50,49.1327 50,49.5408 50.2041,50.1531C50.2041,50.1531 6.93878,30.9694 6.93878,30.9694C6.93878,30.9694 6.73469,30.9694 6.73469,30.9694C4.89796,30.1531 3.87755,28.3163 3.87755,26.4796C3.87755,24.2347 4.69388,22.602 6.12245,21.7857ZM6.93878,56.4796C5.10204,55.6633 3.87755,53.8265 3.87755,51.7857C3.87755,49.949 4.69388,48.5204 6.12245,47.5C6.12245,47.5 52.2449,68.1122 52.2449,68.1122C50.8163,69.7449 50,71.7857 50,74.2347C50,74.8469 50,75.2551 50.2041,75.8673C50.2041,75.8673 6.93878,56.4796 6.93878,56.4796ZM92.449,61.9898C92.449,61.9898 56.3265,78.3163 56.3265,78.3163C54.898,77.5 54.0816,75.8673 54.0816,74.2347C54.0816,72.1939 55.102,70.5612 56.9388,69.5408C56.9388,69.5408 56.9388,69.5408 57.1429,69.5408C57.1429,69.5408 90.6122,54.2347 90.6122,54.2347C90.4082,54.8469 90.4082,55.6633 90.4082,56.4796C90.2041,58.7245 91.0204,60.5612 92.449,61.9898Z"/>
</svg>
