<svg viewBox="0 0 46 46">
    <path d="M19,45 L7.00532266,45 C3.67643992,45 1,42.3124666 1,38.9972261 L1,7.00277388 C1,3.68616253 3.68867454,1 7.00532266,1 L19,1 L38.9944332,1 C42.3074511,1 44.9946773,3.68753341 44.9946773,7.00277388 L44.9946773,38.9972261 C44.9946773,42.3138375 42.3082765,45 38.9944332,45 L19,45 Z M6.99467734,4.00001841 C5.33892147,4.00574691 4,5.34742752 4,7.00277388 L4,38.9972261 C4,40.6569606 5.33248781,41.994294 6.99467734,41.9999818 L6.99467734,4.00001709 Z M9.99467734,42 L38.9944332,42 C40.6517185,42 41.9946773,40.6566869 41.9946773,38.9972261 L41.9946773,7.00277388 C41.9946773,5.34445361 40.6506626,4 38.9944332,4 L9.99467734,4 L9.99467734,42 Z M15.9946773,11.0085302 C15.9946773,9.8992496 16.8928897,9 17.9854725,9 L34.0038822,9 C35.103368,9 35.9946773,9.90195036 35.9946773,11.0085302 L35.9946773,18.9914698 C35.9946773,20.1007504 35.096465,21 34.0038822,21 L17.9854725,21 C16.8859867,21 15.9946773,20.0980496 15.9946773,18.9914698 L15.9946773,11.0085302 Z M18.9946773,18 L32.9946773,18 L32.9946773,12 L18.9946773,12 L18.9946773,18 Z"/>
</svg>
