<svg viewBox="0 0 46 46">
    <path d="M5.13634582,14.9000848 C4.99035474,14.4862269 4.60514195,12.5971561 3.75482474,7.77983331 C2.83501781,3.52910793 4.43253177,0.5 8.76864821,0.5 L20.2546528,0.5 C21.0831633,0.5 21.7548039,1.17157288 21.7548039,2 C21.7548039,2.82842712 21.0831633,3.5 20.2546528,3.5 L8.76864821,3.5 C6.67624454,3.5 6.12473309,4.54574216 6.69830817,7.2015831 C6.81046467,7.83616231 6.91540462,8.42422373 7.01338927,8.96769281 C8.25306859,7.72925282 10.0046811,6.97740113 12.0370705,6.97740113 L33.2099771,6.97740113 C37.6256869,6.97740113 40.715656,10.5215446 40.1103966,14.9022962 L38.5838965,25.9508111 C37.9791832,30.3276098 33.9027269,33.8757062 29.4825248,33.8757062 L15.7645229,33.8757062 C11.3426874,33.8757062 7.26841058,30.3315627 6.66315116,25.9508111 L5.13665105,14.9022962 C5.1365492,14.901559 5.13644746,14.9008219 5.13634582,14.9000848 Z M10.5160122,46.5 C7.63321442,46.5 5.29950051,44.1540314 5.29950051,41.2641243 C5.29950051,38.3742171 7.63321442,36.0282486 10.5160122,36.0282486 C13.3988099,36.0282486 15.7325238,38.3742171 15.7325238,41.2641243 C15.7325238,44.1540314 13.3988099,46.5 10.5160122,46.5 Z M10.5160122,43.5 C11.738193,43.5 12.7322217,42.5007515 12.7322217,41.2641243 C12.7322217,40.0274971 11.738193,39.0282486 10.5160122,39.0282486 C9.29383135,39.0282486 8.29980262,40.0274971 8.29980262,41.2641243 C8.29980262,42.5007515 9.29383135,43.5 10.5160122,43.5 Z M36.2175797,46.5 C33.334782,46.5 31.0010681,44.1540314 31.0010681,41.2641243 C31.0010681,38.3742171 33.334782,36.0282486 36.2175797,36.0282486 C39.1003775,36.0282486 41.4340914,38.3742171 41.4340914,41.2641243 C41.4340914,44.1540314 39.1003775,46.5 36.2175797,46.5 Z M36.2175797,43.5 C37.4397606,43.5 38.4337893,42.5007515 38.4337893,41.2641243 C38.4337893,40.0274971 37.4397606,39.0282486 36.2175797,39.0282486 C34.9953989,39.0282486 34.0013702,40.0274971 34.0013702,41.2641243 C34.0013702,42.5007515 34.9953989,43.5 36.2175797,43.5 Z M9.63522588,25.540262 C10.0351674,28.434962 12.839098,30.8757062 15.7645229,30.8757062 L29.4825248,30.8757062 C32.4053871,30.8757062 35.2122993,28.4319287 35.6118218,25.540262 L37.1383219,14.491747 C37.4943309,11.9150223 35.8065182,9.97740113 33.2099771,9.97740113 L12.0370705,9.97740113 C9.44255541,9.97740113 7.75307191,11.9175926 8.10872577,14.491747 L9.63522588,25.540262 Z"/>
</svg>
