<svg viewBox="0 0 46 46">
    <path d="M40.408626,19.0936037 C41.5142794,19.0936037 41.7818872,18.4605103 40.999899,17.6798584 C40.999899,17.6798584 40.2374609,16.8932902 39.3786323,16.1092182 L28.307135,6.00143742 C25.3835998,3.33238081 20.5250347,3.33332761 17.6025366,6.00143742 L6.53103934,16.1092182 C5.27063301,17.2599127 4.94536401,17.5976819 4.94536401,17.5976819 C4.15404803,18.3630748 4.40272061,18.9835484 5.51069352,18.9835484 L8.12933604,18.9835484 L8.12933604,38.9782179 C8.12933604,40.6506196 9.44018899,42 11.0589093,42 L15.1960178,42 L15.1960178,36.1142596 C15.1960178,33.3521692 17.3690855,31.1184079 20.0602903,31.1184079 L25.9028188,31.1184079 C28.5876179,31.1184079 30.7670913,33.3503112 30.7670913,36.1142596 L30.7670913,42 L34.4156598,42 C36.0394895,42 37.3452331,40.6533202 37.3452331,38.9782179 L37.3452331,19.0936037 L40.408626,19.0936037 Z M28.9248518,45 L17.5567028,45 L11.0589093,45 C7.82972191,45 5.21194826,42.3082595 5.21194826,38.9782179 L5.21194826,21.9835484 C-0.845715653,22.0536625 0.249139206,17.8325867 4.5941418,13.8657941 L15.665639,3.75801332 C19.6913513,0.0827185006 26.2138163,0.0786065279 30.2440326,3.75801332 L41.3155298,13.8657941 C45.7999206,17.9598419 47.0068349,21.9607063 40.2626209,22.0536625 L40.2626209,38.9782179 C40.2626209,42.3039563 37.6567593,45 34.4156598,45 L28.9248518,45 Z M27.8497036,42 L27.8497036,36.1142596 C27.8497036,35.0088943 26.9780536,34.1184079 25.9028188,34.1184079 L20.0602903,34.1184079 C18.9774371,34.1184079 18.1134056,35.0119812 18.1134056,36.1142596 L18.1134056,42 L27.8497036,42 Z"/>
</svg>
